<svg width="48" height="48" viewBox="0 0 48 48" fill="none" xmlns="http://www.w3.org/2000/svg">
<path d="M0 2C0 0.895431 0.895431 0 2 0H46C47.1046 0 48 0.895431 48 2V46C48 47.1046 47.1046 48 46 48H2C0.895431 48 0 47.1046 0 46V2Z" fill="#FFD233"/>
<path d="M25.9233 17.8636V29.5H23.8153V19.9148H23.7472L21.0256 21.6534V19.7216L23.9176 17.8636H25.9233Z" fill="black"/>
<path d="M2 4H46V-4H2V4ZM44 2V46H52V2H44ZM46 44H2V52H46V44ZM4 46V2H-4V46H4ZM2 44C3.10457 44 4 44.8954 4 46H-4C-4 49.3137 -1.31371 52 2 52V44ZM44 46C44 44.8954 44.8954 44 46 44V52C49.3137 52 52 49.3137 52 46H44ZM46 4C44.8954 4 44 3.10457 44 2H52C52 -1.31371 49.3137 -4 46 -4V4ZM2 -4C-1.31371 -4 -4 -1.31371 -4 2H4C4 3.10457 3.10457 4 2 4V-4Z" fill="black" fill-opacity="0.2"/>
</svg>
