<svg width="48" height="48" viewBox="0 0 48 48" fill="none" xmlns="http://www.w3.org/2000/svg">
<path d="M0 2C0 0.895431 0.895431 0 2 0H46C47.1046 0 48 0.895431 48 2V46C48 47.1046 47.1046 48 46 48H2C0.895431 48 0 47.1046 0 46V2Z" fill="#4ECB71"/>
<path d="M23.9993 29.6591C23.1811 29.6591 22.4538 29.5189 21.8175 29.2386C21.1849 28.9583 20.6849 28.5682 20.3175 28.0682C19.95 27.5682 19.755 26.9905 19.7322 26.3352H21.8686C21.8875 26.6496 21.9917 26.9242 22.1811 27.1591C22.3705 27.3902 22.6224 27.5701 22.9368 27.6989C23.2512 27.8277 23.6035 27.892 23.9936 27.892C24.4103 27.892 24.7796 27.8201 25.1016 27.6761C25.4235 27.5284 25.6754 27.3239 25.8572 27.0625C26.0391 26.8011 26.1281 26.5 26.1243 26.1591C26.1281 25.8068 26.0372 25.4962 25.8516 25.2273C25.666 24.9583 25.397 24.7481 25.0447 24.5966C24.6963 24.4451 24.2758 24.3693 23.7834 24.3693H22.755V22.7443H23.7834C24.1887 22.7443 24.5429 22.6742 24.8459 22.5341C25.1527 22.3939 25.3932 22.197 25.5675 21.9432C25.7417 21.6856 25.8269 21.3883 25.8232 21.0511C25.8269 20.7216 25.7531 20.4356 25.6016 20.1932C25.4538 19.947 25.2436 19.7557 24.9709 19.6193C24.7019 19.483 24.3857 19.4148 24.022 19.4148C23.666 19.4148 23.3364 19.4792 23.0334 19.608C22.7304 19.7367 22.486 19.9205 22.3004 20.1591C22.1148 20.3939 22.0163 20.6742 22.005 21H19.9766C19.9917 20.3485 20.1792 19.7765 20.5391 19.2841C20.9027 18.7879 21.3875 18.4015 21.9936 18.125C22.5997 17.8447 23.2796 17.7045 24.0334 17.7045C24.8099 17.7045 25.4841 17.8504 26.0561 18.142C26.6319 18.4299 27.0769 18.8182 27.3913 19.3068C27.7057 19.7955 27.8629 20.3352 27.8629 20.9261C27.8667 21.5814 27.6735 22.1307 27.2834 22.5739C26.897 23.017 26.3894 23.3068 25.7607 23.4432V23.5341C26.5788 23.6477 27.2057 23.9508 27.6413 24.4432C28.0807 24.9318 28.2985 25.5398 28.2947 26.267C28.2947 26.9186 28.1091 27.5019 27.7379 28.017C27.3705 28.5284 26.8629 28.9299 26.2152 29.2216C25.5713 29.5133 24.8326 29.6591 23.9993 29.6591Z" fill="black"/>
<path d="M2 4H46V-4H2V4ZM44 2V46H52V2H44ZM46 44H2V52H46V44ZM4 46V2H-4V46H4ZM2 44C3.10457 44 4 44.8954 4 46H-4C-4 49.3137 -1.31371 52 2 52V44ZM44 46C44 44.8954 44.8954 44 46 44V52C49.3137 52 52 49.3137 52 46H44ZM46 4C44.8954 4 44 3.10457 44 2H52C52 -1.31371 49.3137 -4 46 -4V4ZM2 -4C-1.31371 -4 -4 -1.31371 -4 2H4C4 3.10457 3.10457 4 2 4V-4Z" fill="black" fill-opacity="0.2"/>
</svg>
