<svg width="90" height="65" viewBox="0 0 90 65" fill="none" xmlns="http://www.w3.org/2000/svg">
<path d="M31.39 64.52C30.5648 64.5237 29.7472 64.3629 28.9848 64.047C28.2225 63.731 27.5307 63.2663 26.95 62.68L2.80005 38.53C2.21559 37.9467 1.75189 37.2538 1.43552 36.4911C1.11914 35.7284 0.956299 34.9108 0.956299 34.085C0.956299 33.2593 1.11914 32.4416 1.43552 31.6789C1.75189 30.9162 2.21559 30.2233 2.80005 29.64C3.97279 28.4554 5.56781 27.7847 7.23471 27.7754C8.90161 27.766 10.504 28.4186 11.69 29.59L11.7401 29.64L31.44 49.34L78.32 2.47C78.9034 1.88554 79.5962 1.42187 80.3589 1.1055C81.1217 0.789126 81.9393 0.626282 82.765 0.626282C83.5908 0.626282 84.4084 0.789126 85.1711 1.1055C85.9339 1.42187 86.6267 1.88554 87.2101 2.47C88.3874 3.64768 89.0488 5.24476 89.0488 6.91001C89.0488 8.57526 88.3874 10.1723 87.2101 11.35L35.89 62.67C35.3018 63.2636 34.6004 63.7331 33.8275 64.0509C33.0545 64.3686 32.2257 64.5282 31.39 64.52Z" fill="#F29D00"/>
</svg>
