<svg width="48" height="48" viewBox="0 0 48 48" fill="none" xmlns="http://www.w3.org/2000/svg">
<path d="M0 2C0 0.895431 0.895431 0 2 0H46C47.1046 0 48 0.895431 48 2V46C48 47.1046 47.1046 48 46 48H2C0.895431 48 0 47.1046 0 46V2Z" fill="#FF9A62"/>
<path d="M20.0653 29.5V27.9773L24.1051 24.017C24.4915 23.6269 24.8134 23.2803 25.071 22.9773C25.3286 22.6742 25.5218 22.3807 25.6506 22.0966C25.7794 21.8125 25.8438 21.5095 25.8438 21.1875C25.8438 20.8201 25.7604 20.5057 25.5938 20.2443C25.4271 19.9792 25.1979 19.7746 24.9062 19.6307C24.6146 19.4867 24.2831 19.4148 23.9119 19.4148C23.5294 19.4148 23.1941 19.4943 22.9062 19.6534C22.6184 19.8087 22.3949 20.0303 22.2358 20.3182C22.0805 20.6061 22.0028 20.9489 22.0028 21.3466H19.9972C19.9972 20.608 20.1657 19.9659 20.5028 19.4205C20.84 18.875 21.304 18.4527 21.8949 18.1534C22.4896 17.8542 23.1714 17.7045 23.9403 17.7045C24.7206 17.7045 25.4063 17.8504 25.9972 18.142C26.5881 18.4337 27.0464 18.8333 27.3722 19.3409C27.7017 19.8485 27.8665 20.428 27.8665 21.0795C27.8665 21.5152 27.7831 21.9432 27.6165 22.3636C27.4498 22.7841 27.1563 23.25 26.7358 23.7614C26.3191 24.2727 25.7339 24.892 24.9801 25.6193L22.9744 27.6591V27.7386H28.0426V29.5H20.0653Z" fill="black"/>
<path d="M2 4H46V-4H2V4ZM44 2V46H52V2H44ZM46 44H2V52H46V44ZM4 46V2H-4V46H4ZM2 44C3.10457 44 4 44.8954 4 46H-4C-4 49.3137 -1.31371 52 2 52V44ZM44 46C44 44.8954 44.8954 44 46 44V52C49.3137 52 52 49.3137 52 46H44ZM46 4C44.8954 4 44 3.10457 44 2H52C52 -1.31371 49.3137 -4 46 -4V4ZM2 -4C-1.31371 -4 -4 -1.31371 -4 2H4C4 3.10457 3.10457 4 2 4V-4Z" fill="black" fill-opacity="0.2"/>
</svg>
