<svg width="30" height="30" viewBox="0 0 30 30" fill="none" xmlns="http://www.w3.org/2000/svg">
<g clip-path="url(#clip0_305_5)">
<path fill-rule="evenodd" clip-rule="evenodd" d="M14.9916 30C15.2419 30 15.4809 29.8969 15.6609 29.7253L25.035 20.445C25.4053 20.0784 25.4044 19.485 25.035 19.1194C24.6656 18.7528 24.0656 18.7528 23.6962 19.1194L15.9384 26.8003L15.9384 0.9375C15.9384 0.42 15.5147 0 14.9916 0C14.4684 0 14.0447 0.42 14.0447 0.9375L14.0447 26.7994L6.28687 19.1194C5.9175 18.7528 5.3175 18.7537 4.94813 19.1194C4.57875 19.4859 4.57875 20.0794 4.94813 20.445L14.3222 29.7253C14.4994 29.9006 14.7431 29.9972 14.9916 30Z" fill="#121313"/>
</g>
<defs>
<clipPath id="clip0_305_5">
<rect width="30" height="30" fill="white" transform="translate(30) rotate(90)"/>
</clipPath>
</defs>
</svg>
