<svg width="22" height="30" viewBox="0 0 22 30" fill="none" xmlns="http://www.w3.org/2000/svg">
<path fill-rule="evenodd" clip-rule="evenodd" d="M10.9916 30C11.2419 30 11.4809 29.8969 11.6609 29.7253L21.035 20.445C21.4053 20.0784 21.4044 19.485 21.035 19.1194C20.6656 18.7528 20.0656 18.7528 19.6962 19.1194L11.9384 26.8003V0.9375C11.9384 0.42 11.5147 0 10.9916 0C10.4684 0 10.0447 0.42 10.0447 0.9375V26.7994L2.28687 19.1194C1.9175 18.7528 1.3175 18.7537 0.948132 19.1194C0.578752 19.4859 0.578752 20.0794 0.948132 20.445L10.3222 29.7253C10.4994 29.9006 10.7431 29.9972 10.9916 30Z" fill="#F29D00"/>
</svg>
