<svg width="172" height="144" viewBox="0 0 172 144" fill="none" xmlns="http://www.w3.org/2000/svg">
<path d="M69.1875 79.1401L69.1823 79.1414C69.1843 79.1414 69.1853 79.1401 69.1875 79.1401ZM79.8833 142.428H79.8967H79.8833ZM79.894 143.333C79.8873 143.333 79.8793 143.333 79.8713 143.333L79.0273 143.323L77.2807 143.235L75.5327 143.061L73.8088 142.799L72.1135 142.456L70.4495 142.031L68.8161 141.524L67.2208 140.944L65.6619 140.288L64.1443 139.559L62.6671 138.76L61.2337 137.892L59.85 136.959L58.5124 135.961L57.2255 134.904L55.9916 133.785L54.814 132.612L53.6921 131.38L52.6301 130.097L51.6291 128.764L50.6921 127.381L49.8213 125.952L49.0176 124.477L48.2837 122.961L47.6228 121.405L47.0375 119.812L46.528 118.181L46.0968 116.52L45.7484 114.827L45.4828 113.104L45.3015 111.355L45.1957 108.661L45.2708 106.552L45.4561 104.513L45.8739 101.861L46.4848 99.2774L47.2828 96.7854L48.2619 94.388L49.4156 92.0907L50.7369 89.9014L52.2213 87.8214L53.8604 85.856L55.6463 84.0107L57.5744 82.2854L59.6348 80.684L61.8233 79.2121L64.1323 77.8694L67.8375 76.092C68.3531 75.8627 68.9312 75.848 69.4593 76.0547C69.9891 76.26 70.4061 76.66 70.6333 77.18C71.1031 78.24 70.6192 79.4947 69.5531 79.968L68.3724 80.488L66.1635 81.5867L64.0905 82.7907L62.1369 84.1027L60.3041 85.5227L58.6004 87.0467L57.026 88.6707L55.588 90.392L54.2905 92.2067L53.1343 94.1174L52.1271 96.1174L51.2719 98.2067L50.5724 100.388L50.0343 102.653L49.6629 105.012L49.4343 108.64L49.5249 111.012L49.6823 112.547L49.9156 114.06L50.2203 115.545L50.5968 117.004L51.0437 118.433L51.5567 119.831L52.1364 121.196L52.7791 122.527L53.4833 123.821L54.2473 125.076L55.0697 126.291L55.9489 127.463L56.8812 128.589L57.8656 129.671L58.9004 130.704L59.9837 131.687L61.1124 132.617L62.2875 133.493L63.5025 134.312L64.7604 135.076L66.0557 135.777L67.3875 136.417L68.7536 136.993L70.1547 137.505L71.5848 137.949L73.0432 138.321L74.5307 138.624L76.0433 138.855L77.5793 139.009L79.9193 139.095C80.4847 139.101 81.0153 139.328 81.4113 139.733C81.8073 140.139 82.022 140.675 82.014 141.241C81.9993 142.4 81.05 143.333 79.894 143.333" fill="#44347D"/>
<path d="M91.5393 76.9C91.5406 76.9014 91.5406 76.9014 91.5406 76.9014H91.5446C91.542 76.9014 91.5406 76.9014 91.5393 76.9ZM90.6553 79.1627C90.6593 79.164 90.6647 79.1667 90.6687 79.168L90.6553 79.1627ZM79.9193 142.428H79.91C79.9126 142.428 79.9167 142.428 79.9193 142.428ZM79.9007 143.333C78.7407 143.333 77.7913 142.4 77.7766 141.241C77.7686 140.675 77.9833 140.139 78.3793 139.733C78.7753 139.328 79.306 139.101 79.8713 139.095L82.2726 139.005L83.8086 138.847L85.3207 138.615L86.8073 138.308L88.2646 137.931L89.6953 137.485L91.094 136.972L92.458 136.393L93.7887 135.751L95.082 135.045L96.3367 134.281L97.5527 133.459L98.7233 132.581L99.8513 131.649L100.933 130.664L101.966 129.628L102.949 128.545L103.879 127.416L104.754 126.241L105.575 125.025L106.337 123.769L107.039 122.473L107.679 121.141L108.255 119.775L108.766 118.376L109.21 116.944L109.583 115.485L109.886 113.999L110.115 112.485L110.27 110.951L110.355 108.663L110.305 107.464L110.07 105.057L109.671 102.733L109.113 100.467L108.399 98.2694L107.533 96.148L106.519 94.1027L105.363 92.1467L104.066 90.2867L102.635 88.524L101.073 86.8694L99.3833 85.3294L97.57 83.9094L95.6353 82.6187L93.5806 81.4574L90.322 80.004C89.7953 79.796 89.3793 79.3961 89.154 78.8761C88.9287 78.3574 88.918 77.7827 89.1246 77.256C89.334 76.7267 89.734 76.3107 90.2553 76.0854C90.7753 75.8614 91.3513 75.8494 91.8793 76.0627L93.7126 76.8227L95.5207 77.692L97.8313 78.996L100.031 80.464L102.095 82.0747L104.022 83.8294L105.803 85.7121L107.434 87.7174L108.911 89.836L110.229 92.0587L111.383 94.38L112.367 96.7907L113.178 99.2787L113.813 101.841L114.265 104.465L114.529 107.145L114.593 108.541C114.595 108.612 114.594 108.707 114.587 108.777L114.583 109.501L114.497 111.247L114.322 112.997L114.061 114.721L113.717 116.415L113.291 118.08L112.787 119.711L112.205 121.308L111.549 122.865L110.821 124.385L110.021 125.861L109.154 127.293L108.221 128.68L107.225 130.016L106.166 131.303L105.047 132.537L103.873 133.716L102.642 134.837L101.359 135.9L100.025 136.9L98.642 137.836L97.2126 138.708L95.7393 139.512L94.2233 140.244L92.6673 140.905L91.074 141.492L89.4446 142.001L87.7806 142.432L86.0873 142.781L84.3646 143.047L82.6153 143.227L79.9233 143.333C79.9166 143.333 79.9087 143.333 79.9007 143.333" fill="#44347D"/>
<path d="M90.9567 94.6934C89.814 94.6934 88.8847 93.764 88.8847 92.6227V54.056H71.5004C70.3583 54.056 69.4285 53.1254 69.4285 51.984C69.4285 50.8414 70.3583 49.912 71.5004 49.912H90.9567C92.0993 49.912 93.0287 50.8414 93.0287 51.984V92.6227C93.0287 93.764 92.0993 94.6934 90.9567 94.6934Z" fill="#44347D"/>
<path d="M68.8338 94.6934C67.6916 94.6934 66.7619 93.764 66.7619 92.6227V51.984C66.7619 50.8414 67.6916 49.912 68.8338 49.912C69.9766 49.912 70.9058 50.8414 70.9058 51.984V92.6227C70.9058 93.764 69.9766 94.6934 68.8338 94.6934Z" fill="#44347D"/>
<path d="M62.5113 49.9121H97.2793V43.0547H62.5113V49.9121ZM99.3513 54.056H60.4395C59.2968 54.056 58.3671 53.1254 58.3671 51.984V40.9827C58.3671 39.84 59.2968 38.9107 60.4395 38.9107H99.3513C100.494 38.9107 101.422 39.84 101.422 40.9827V51.984C101.422 53.1254 100.494 54.056 99.3513 54.056Z" fill="#44347D"/>
<path d="M31.2558 133.605C30.1135 133.605 29.1838 132.676 29.1838 131.533V54.056H11.8C10.6578 54.056 9.72803 53.1253 9.72803 51.984C9.72803 50.8413 10.6578 49.912 11.8 49.912H31.2558C32.3984 49.912 33.3276 50.8413 33.3276 51.984V131.533C33.3276 132.676 32.3984 133.605 31.2558 133.605Z" fill="#44347D"/>
<path d="M11.8 133.605C10.6578 133.605 9.72803 132.676 9.72803 131.533V51.984C9.72803 50.8413 10.6578 49.912 11.8 49.912C12.9427 49.912 13.8719 50.8413 13.8719 51.984V131.533C13.8719 132.676 12.9427 133.605 11.8 133.605Z" fill="#44347D"/>
<path d="M10.5391 131.563C10.5391 131.568 10.5391 131.576 10.5395 131.583L10.5391 131.563ZM21.5375 140H21.5614C21.5531 140 21.5447 140 21.5375 140ZM21.5276 143.333C21.5114 143.333 21.4952 143.333 21.4786 143.333L20.9734 143.32L19.8386 143.211C19.7834 143.204 19.7286 143.196 19.6744 143.185L18.6848 142.985C18.6302 142.973 18.5771 142.96 18.5234 142.944L17.5714 142.649C17.5198 142.633 17.4687 142.616 17.4192 142.595L16.5088 142.213C16.4572 142.191 16.4067 142.168 16.3583 142.14L15.4963 141.673C15.4495 141.648 15.4047 141.621 15.361 141.591L14.551 141.047C14.5067 141.017 14.4635 140.985 14.4224 140.952L13.6714 140.335C13.6302 140.3 13.5906 140.265 13.5531 140.228L12.864 139.541C12.8271 139.504 12.7911 139.464 12.7572 139.424L12.137 138.676C12.1031 138.633 12.0703 138.591 12.0406 138.547L11.4932 137.739C11.463 137.695 11.4348 137.649 11.4099 137.603L10.94 136.741C10.914 136.693 10.8906 136.645 10.8692 136.596L10.4834 135.688C10.4614 135.637 10.4427 135.585 10.4266 135.533L10.1291 134.581C10.1119 134.529 10.0984 134.476 10.0875 134.421L9.88283 133.433C9.8719 133.379 9.86243 133.323 9.85723 133.267L9.7291 131.587C9.6995 130.448 10.6015 129.495 11.7411 129.461C11.7578 129.46 11.7739 129.46 11.7911 129.46C12.9208 129.46 13.8452 130.359 13.8714 131.484L13.9583 132.68L14.111 133.432L14.3323 134.149L14.6208 134.836L14.9724 135.487L15.3843 136.099L15.8515 136.668L16.3698 137.188L16.9354 137.657L17.5463 138.071L18.1958 138.427L18.8796 138.717L19.5968 138.943L20.3427 139.096L21.5776 139.188C21.5807 139.188 21.5838 139.188 21.5875 139.189C22.7266 139.223 23.6291 140.176 23.599 141.315C23.5698 142.437 22.6452 143.333 21.5276 143.333" fill="#44347D"/>
<path d="M30.8509 131.523H30.864H30.8509ZM29.9947 131.504C29.9943 131.515 29.9943 131.525 29.9943 131.537L29.9947 131.504ZM32.5171 131.563C32.5171 131.564 32.5171 131.565 32.5171 131.567V131.568C32.5171 131.567 32.5171 131.564 32.5171 131.563V131.563ZM21.5338 143.333C20.4078 143.333 19.4833 142.435 19.4572 141.309C19.4271 140.176 20.3296 139.223 21.4698 139.189L22.6755 139.101L23.428 138.951L24.1447 138.729L24.8307 138.44L25.4818 138.088L26.0947 137.677L26.663 137.211L27.1834 136.692L27.6531 136.124L28.0671 135.513L28.4214 134.864L28.713 134.18L28.9375 133.464L29.0911 132.72L29.1848 131.484C29.1848 131.483 29.1848 131.481 29.1848 131.48C29.2135 130.34 30.1146 129.453 31.3058 129.46C32.4547 129.495 33.3567 130.448 33.3271 131.587L33.3146 132.085L33.2052 133.223C33.2 133.277 33.1916 133.332 33.1801 133.387L32.9796 134.376C32.9687 134.431 32.9552 134.484 32.9391 134.537L32.6447 135.491C32.628 135.543 32.6104 135.593 32.5886 135.644L32.2061 136.555C32.1853 136.604 32.1619 136.653 32.1364 136.701L31.6703 137.564C31.6447 137.611 31.6167 137.656 31.587 137.701L31.0416 138.512C31.0119 138.556 30.9796 138.597 30.9457 138.639L30.328 139.391C30.2947 139.431 30.2599 139.469 30.2224 139.508L29.5364 140.196C29.499 140.235 29.4594 140.271 29.4182 140.304L28.6687 140.924C28.6276 140.957 28.5859 140.989 28.5427 141.019L27.7348 141.568C27.69 141.597 27.6443 141.625 27.5963 141.652L26.7364 142.121C26.6895 142.147 26.6411 142.171 26.5922 142.191L25.6838 142.577C25.6328 142.599 25.5817 142.619 25.5291 142.633L24.578 142.932C24.5239 142.949 24.4703 142.963 24.4151 142.975L23.426 143.179C23.3724 143.188 23.3181 143.197 23.2635 143.203L21.5834 143.333C21.5671 143.333 21.55 143.333 21.5338 143.333Z" fill="#44347D"/>
<path d="M4.14427 49.9121H38.9113V43.0547H4.14427V49.9121ZM41.3891 54.056H1.66667C0.746267 54.056 0 53.3094 0 52.3894V40.5774C0 39.6574 0.746267 38.9107 1.66667 38.9107H41.3891C42.3093 38.9107 43.0557 39.6574 43.0557 40.5774V52.3894C43.0557 53.3094 42.3093 54.056 41.3891 54.056Z" fill="#44347D"/>
<path d="M21.9334 32.9214H21.1224C20.202 32.9214 19.4557 32.1761 19.4557 31.2547C19.4557 14.0201 33.4776 6.70664e-05 50.7113 6.70664e-05C51.6323 6.70664e-05 52.378 0.7454 52.378 1.66673V2.47741C52.378 3.39741 51.6323 4.14408 50.7113 4.14408C35.7619 4.14408 23.6 16.3054 23.6 31.2547C23.6 32.1761 22.8536 32.9214 21.9334 32.9214Z" fill="#FBB924"/>
<path d="M80.3007 32.9214H79.49C78.5687 32.9214 77.8233 32.1761 77.8233 31.2547C77.8233 16.3054 65.6609 4.14408 50.7113 4.14408C49.7911 4.14408 49.0447 3.39741 49.0447 2.47741V1.66673C49.0447 0.7454 49.7911 6.70664e-05 50.7113 6.70664e-05C67.9457 6.70664e-05 81.9673 14.0201 81.9673 31.2547C81.9673 32.1761 81.2207 32.9214 80.3007 32.9214Z" fill="#FBB924"/>
<path d="M128.061 139.188H157.738V54.056H128.061V139.188ZM160.215 143.333H125.583C124.663 143.333 123.917 142.587 123.917 141.667V51.5787C123.917 50.6574 124.663 49.912 125.583 49.912H160.215C161.135 49.912 161.882 50.6574 161.882 51.5787V141.667C161.882 142.587 161.135 143.333 160.215 143.333Z" fill="#44347D"/>
<path d="M118.333 49.9121H167.466V43.0547H118.333V49.9121ZM169.943 54.056H115.855C114.935 54.056 114.189 53.3094 114.189 52.3894V40.5774C114.189 39.6574 114.935 38.9107 115.855 38.9107H169.943C170.863 38.9107 171.61 39.6574 171.61 40.5774V52.3894C171.61 53.3094 170.863 54.056 169.943 54.056Z" fill="#44347D"/>
<path d="M151.354 133.605H134.445C133.523 133.605 132.778 132.859 132.778 131.939V131.127C132.778 130.207 133.523 129.46 134.445 129.46H151.354C152.275 129.46 153.021 130.207 153.021 131.127V131.939C153.021 132.859 152.275 133.605 151.354 133.605Z" fill="#FF785F"/>
<path d="M151.354 123.877H134.445C133.523 123.877 132.778 123.131 132.778 122.211V121.4C132.778 120.479 133.523 119.733 134.445 119.733H151.354C152.275 119.733 153.021 120.479 153.021 121.4V122.211C153.021 123.131 152.275 123.877 151.354 123.877Z" fill="#FF785F"/>
<path d="M151.354 114.149H134.445C133.523 114.149 132.778 113.403 132.778 112.483V111.672C132.778 110.751 133.523 110.005 134.445 110.005H151.354C152.275 110.005 153.021 110.751 153.021 111.672V112.483C153.021 113.403 152.275 114.149 151.354 114.149Z" fill="#FF785F"/>
<path d="M31.2558 114.149H11.8C10.8796 114.149 10.1334 113.403 10.1334 112.483V111.672C10.1334 110.751 10.8796 110.005 11.8 110.005H31.2558C32.1766 110.005 32.9224 110.751 32.9224 111.672V112.483C32.9224 113.403 32.1766 114.149 31.2558 114.149Z" fill="#44347D"/>
<path d="M111.746 114.149H48.0447C47.1244 114.149 46.378 113.403 46.378 112.483V111.672C46.378 110.751 47.1244 110.005 48.0447 110.005H111.746C112.666 110.005 113.413 110.751 113.413 111.672V112.483C113.413 113.403 112.666 114.149 111.746 114.149Z" fill="#44347D"/>
</svg>
