<svg width="166" height="164" viewBox="0 0 166 164" fill="none" xmlns="http://www.w3.org/2000/svg">
<path d="M82.576 118.596H82.5893H82.576ZM61.7534 163.333C61.4307 163.333 61.108 163.259 60.8107 163.109C60.308 162.857 59.932 162.424 59.7547 161.889C59.576 161.355 59.6187 160.783 59.8707 160.279L81.084 117.852C81.6027 116.812 82.868 116.385 83.9107 116.905C84.4187 117.16 84.7933 117.593 84.972 118.127C85.1507 118.661 85.108 119.235 84.856 119.739L63.6413 162.167C63.3907 162.671 62.9573 163.047 62.4227 163.225C62.2027 163.297 61.9774 163.333 61.7534 163.333Z" fill="#FF7F27"/>
<path d="M103.091 119.341C103.092 119.341 103.092 119.343 103.092 119.344L103.091 119.341ZM124.308 161.773H124.321H124.308ZM125.404 163.333C125.18 163.333 124.955 163.297 124.736 163.225C124.2 163.047 123.767 162.671 123.515 162.165L102.3 119.736C102.049 119.235 102.008 118.661 102.185 118.127C102.364 117.593 102.739 117.16 103.241 116.908C104.288 116.387 105.555 116.812 106.073 117.852L127.287 160.279C127.54 160.783 127.581 161.355 127.403 161.889C127.225 162.424 126.849 162.857 126.345 163.111C126.048 163.259 125.728 163.333 125.404 163.333Z" fill="#FF7F27"/>
<path d="M104.187 120.019H104.2H104.187ZM104.187 120.903H82.9707C81.808 120.903 80.8627 119.956 80.8627 118.793C80.8627 117.631 81.808 116.685 82.9707 116.685H104.187C105.349 116.685 106.295 117.631 106.295 118.793C106.295 119.956 105.349 120.903 104.187 120.903Z" fill="#44347D"/>
<path d="M84.068 140.555L84.0667 140.557C84.0667 140.556 84.0667 140.555 84.068 140.555ZM71.2693 160.672C71.2693 160.673 71.2693 160.673 71.2693 160.675V160.672ZM72.7587 161.421H72.772H72.7587ZM72.3613 163.333C72.0373 163.333 71.716 163.259 71.4187 163.109C70.3814 162.589 69.9587 161.321 70.476 160.283L81.0854 139.065C81.6014 138.028 82.868 137.601 83.9107 138.121C84.4187 138.376 84.7933 138.808 84.972 139.343C85.1507 139.877 85.108 140.449 84.856 140.953L74.2493 162.167C74.2493 162.168 74.2493 162.168 74.248 162.169C73.996 162.671 73.5653 163.047 73.032 163.224C72.812 163.297 72.5853 163.333 72.3613 163.333Z" fill="#FF7F27"/>
<path d="M103.091 140.556C103.092 140.557 103.092 140.559 103.092 140.559L103.091 140.556ZM113.697 161.768C113.697 161.769 113.697 161.769 113.699 161.769L113.697 161.768ZM114.796 163.333C114.572 163.333 114.347 163.297 114.127 163.224C113.593 163.047 113.161 162.671 112.909 162.169L102.3 140.952C102.049 140.449 102.008 139.877 102.185 139.343C102.364 138.808 102.739 138.376 103.241 138.124C104.288 137.603 105.555 138.028 106.073 139.068L116.681 160.281V160.283C117.199 161.321 116.776 162.589 115.739 163.109C115.441 163.259 115.12 163.333 114.796 163.333Z" fill="#FF7F27"/>
<path d="M104.187 141.233H104.2H104.187ZM104.187 142.117H82.9707C81.808 142.117 80.8627 141.171 80.8627 140.009C80.8627 138.847 81.808 137.9 82.9707 137.9H104.187C105.349 137.9 106.295 138.847 106.295 140.009C106.295 141.171 105.349 142.117 104.187 142.117Z" fill="#FF7F27"/>
<path d="M108.895 130.625H108.907H108.895ZM108.895 131.509H77.9093C76.7467 131.509 75.8 130.564 75.8 129.401C75.8 128.239 76.7467 127.292 77.9093 127.292H108.895C110.057 127.292 111.003 128.239 111.003 129.401C111.003 130.564 110.057 131.509 108.895 131.509Z" fill="#FF7F27"/>
<path d="M104.187 120.903H82.9707C81.808 120.903 80.8627 119.956 80.8627 118.793V44.5387C80.8627 43.3774 81.808 42.4307 82.9707 42.4307C84.1333 42.4307 85.08 43.3774 85.08 44.5387V116.685H102.077V44.5387C102.077 43.3774 103.024 42.4307 104.187 42.4307C105.349 42.4307 106.295 43.3774 106.295 44.5387V118.793C106.295 119.956 105.349 120.903 104.187 120.903Z" fill="#FF7F27"/>
<path d="M18.7813 64.6574C18.7813 64.6574 18.78 64.6574 18.7786 64.6587L18.7813 64.6574ZM19.5226 66.1507H19.536H19.5226ZM19.3293 67.8627C18.556 67.8627 17.8093 67.436 17.44 66.7C17.1866 66.196 17.1453 65.624 17.324 65.0894C17.5013 64.5547 17.8773 64.1214 18.3813 63.8681L145.675 0.222695C146.713 -0.297305 147.983 0.125401 148.503 1.16274C148.649 1.4574 148.727 1.78272 148.727 2.10805V12.7161C148.727 13.5201 148.28 14.2414 147.56 14.6014L101.943 37.4107C100.904 37.9307 99.6346 37.5094 99.1146 36.4707C98.8613 35.9641 98.8213 35.392 98.9986 34.856C99.1773 34.3227 99.5533 33.8894 100.057 33.6387L144.509 11.4134V5.52003L20.268 67.6414C20.2666 67.6414 20.2666 67.6414 20.2653 67.6414C19.9653 67.7907 19.6453 67.8627 19.3293 67.8627Z" fill="#FF7F27"/>
<path d="M40.544 67.8614C39.7693 67.8614 39.024 67.4347 38.6547 66.7001C38.4027 66.1961 38.3613 65.6241 38.54 65.0894C38.7173 64.5547 39.0933 64.1214 39.5973 63.8681L82.028 42.6534C82.5347 42.4014 83.1053 42.3614 83.6387 42.5387C84.1733 42.7174 84.6067 43.0934 84.8573 43.5988C85.108 44.0988 85.1507 44.6707 84.972 45.2054C84.7933 45.7387 84.4187 46.1721 83.916 46.4241L41.484 67.6414C41.1813 67.7907 40.8613 67.8614 40.544 67.8614Z" fill="#FF7F27"/>
<path d="M163.833 162.449H163.847H163.833ZM163.833 163.332H2.10934C0.946676 163.332 0 162.387 0 161.224C0 160.061 0.946676 159.116 2.10934 159.116H163.833C164.996 159.116 165.941 160.061 165.941 161.224C165.941 162.387 164.996 163.332 163.833 163.332Z" fill="#FF7F27"/>
<path d="M92.2627 52.9361L93.5653 53.0374L94.0413 53.0267L94.8534 52.9427L95.6867 52.7734L96.484 52.528L97.2454 52.2081L97.968 51.8174L98.648 51.3601L99.28 50.8414L99.8573 50.2667L100.377 49.6361L100.839 48.9601L101.232 48.2387L101.555 47.4787L101.804 46.6814L101.976 45.856L102.077 44.5534L102.067 44.0774L101.983 43.264L101.813 42.4321L101.568 41.6348L101.247 40.8721L100.856 40.1494L100.4 39.4694L99.88 38.8387L99.3053 38.2601L98.676 37.7387L97.9987 37.2801L97.2787 36.8867L96.5174 36.5627L95.7213 36.3134L94.8947 36.1427L93.5933 36.0414L93.116 36.0507L92.304 36.1361L91.4707 36.3041L90.6747 36.5507L89.912 36.8708L89.1893 37.2601L88.5107 37.7187L87.8774 38.2374L87.3 38.812L86.7787 39.4414L86.32 40.12L85.9267 40.8401L85.6027 41.6001L85.3534 42.3961L85.1814 43.2227L85.08 44.5254L85.0907 45.0014L85.176 45.8134L85.344 46.6467L85.5907 47.4441L85.9107 48.2054L86.3 48.9294L86.7587 49.6081L87.2774 50.2401L87.852 50.8174L88.4814 51.3387L89.1587 51.7988L89.8787 52.192L90.64 52.5147L91.4347 52.7654L92.2627 52.9361ZM93.5787 57.256C93.5614 57.256 93.544 57.2561 93.528 57.2547L92.9787 57.2414L91.7534 57.1227C91.6987 57.1174 91.6427 57.1094 91.588 57.0988L90.508 56.8801C90.4547 56.8681 90.4 56.8547 90.348 56.8387L89.3094 56.5174C89.2574 56.5014 89.2053 56.4841 89.1547 56.4627L88.1613 56.0441C88.112 56.0241 88.0627 56.0001 88.0147 55.9747L87.0747 55.4654C87.028 55.4401 86.9813 55.4134 86.9373 55.3827L86.0547 54.7894C86.0107 54.76 85.968 54.7281 85.9267 54.6934L85.1067 54.02C85.0653 53.9867 85.0267 53.9507 84.988 53.9134L84.2373 53.1641C84.2 53.1267 84.1653 53.0881 84.1307 53.0467L83.4547 52.2307C83.42 52.1894 83.388 52.1467 83.3573 52.1027L82.7613 51.2227C82.7307 51.1787 82.7027 51.1321 82.6774 51.0854L82.1653 50.148C82.14 50.1 82.116 50.0508 82.0947 50.0014L81.6733 49.0107C81.652 48.9601 81.6334 48.908 81.6174 48.856L81.2933 47.8187C81.276 47.7667 81.2627 47.7134 81.2507 47.6587L81.028 46.5801C81.0173 46.5254 81.008 46.4707 81.0027 46.4147L80.8627 44.5974L80.8774 43.9387L80.9947 42.7134C81 42.6587 81.0094 42.6027 81.02 42.548L81.2387 41.4681C81.2493 41.4148 81.264 41.3601 81.28 41.3081L81.6 40.2694C81.616 40.2174 81.6347 40.1654 81.656 40.1147L82.0733 39.1227C82.0947 39.072 82.1174 39.0227 82.144 38.9747L82.652 38.0348C82.6774 37.9881 82.7053 37.9414 82.736 37.8974L83.3293 37.0147C83.3587 36.9707 83.3907 36.928 83.424 36.8867L84.0987 36.0667C84.132 36.0254 84.168 35.9867 84.2053 35.9494L84.9534 35.1987C84.9907 35.1601 85.0293 35.1254 85.0707 35.0907L85.888 34.4147C85.9293 34.38 85.9707 34.348 86.0147 34.3174L86.896 33.7214C86.94 33.6907 86.9853 33.6628 87.032 33.6374L87.9693 33.1267C88.0173 33.1001 88.0667 33.0774 88.116 33.056L89.1067 32.6348C89.1573 32.6121 89.2093 32.5934 89.2627 32.5774L90.2987 32.2534C90.352 32.236 90.4053 32.2227 90.46 32.2107L91.5373 31.9894C91.592 31.9774 91.648 31.9681 91.7027 31.9627L93.52 31.8227L94.18 31.8374L95.404 31.956C95.46 31.96 95.5147 31.9694 95.5693 31.9801L96.6494 32.1987C96.7027 32.2107 96.756 32.2241 96.8094 32.2401L97.848 32.5601C97.9014 32.5761 97.952 32.5947 98.0027 32.6161L98.996 33.0334C99.0453 33.0547 99.0947 33.0788 99.1427 33.1041L100.083 33.612C100.129 33.6374 100.176 33.6654 100.22 33.6961L101.103 34.2894C101.148 34.3187 101.189 34.3507 101.232 34.384L102.051 35.0587C102.092 35.092 102.131 35.1281 102.169 35.1654L102.92 35.9134C102.957 35.9507 102.993 35.9907 103.027 36.0307L103.704 36.848C103.737 36.8894 103.768 36.9321 103.799 36.9747L104.396 37.856C104.427 37.9 104.455 37.9454 104.48 37.992L104.992 38.9294C105.017 38.9787 105.041 39.0267 105.063 39.0774L105.484 40.0681C105.505 40.1188 105.524 40.1707 105.541 40.2227L105.865 41.2601C105.881 41.3121 105.896 41.3654 105.907 41.42L106.129 42.4974C106.14 42.552 106.149 42.6081 106.155 42.6627L106.295 44.4814L106.28 45.1401L106.163 46.364C106.157 46.42 106.149 46.4747 106.137 46.5294L105.919 47.6107C105.908 47.6641 105.895 47.7174 105.877 47.7708L105.557 48.8094C105.541 48.8614 105.523 48.9134 105.501 48.9627L105.084 49.956C105.064 50.0067 105.04 50.0561 105.015 50.1027L104.505 51.0441C104.48 51.0907 104.452 51.136 104.423 51.1814L103.828 52.0641C103.799 52.1081 103.767 52.1507 103.733 52.192L103.06 53.012C103.025 53.052 102.989 53.0907 102.952 53.1294L102.204 53.8801C102.167 53.9174 102.128 53.9534 102.087 53.9867L101.269 54.6641C101.229 54.6974 101.187 54.7307 101.143 54.7601L100.263 55.3574C100.217 55.3867 100.172 55.4148 100.125 55.4401L99.1867 55.9521C99.1387 55.9787 99.0907 56.0014 99.0414 56.0227L98.0507 56.4441C98 56.4654 97.948 56.4841 97.896 56.5014L96.8587 56.8254C96.8053 56.8427 96.752 56.8561 96.6987 56.8667L95.62 57.0894C95.5654 57.1014 95.5107 57.1107 95.4547 57.1147L93.6693 57.2534C93.6387 57.2547 93.6094 57.256 93.5787 57.256Z" fill="#5FBCFF"/>
<path d="M146.617 163.332C145.455 163.332 144.509 162.387 144.509 161.224V2.10803C144.509 0.945364 145.455 2.28882e-05 146.617 2.28882e-05C147.78 2.28882e-05 148.727 0.945364 148.727 2.10803V161.224C148.727 162.387 147.78 163.332 146.617 163.332Z" fill="#FF7F27"/>
<path d="M21.4333 96.7054L29.932 105.204L38.432 96.7054V37.3441L21.4333 45.8427V96.7054ZM29.932 110.293C29.3933 110.293 28.852 110.088 28.4413 109.676L17.8333 99.0694C17.4413 98.676 17.216 98.132 17.216 97.5774V44.6054C17.2107 44.436 17.2266 44.268 17.2626 44.1C17.2866 43.9867 17.32 43.8774 17.3613 43.7707C17.5506 43.2827 17.9107 42.8894 18.3813 42.6534L39.5973 32.0454C40.1 31.7934 40.672 31.7534 41.208 31.9307C41.7413 32.1094 42.176 32.4854 42.4266 32.9894C42.5706 33.2747 42.6493 33.6027 42.6493 33.9321V97.5774C42.6493 98.136 42.4226 98.6814 42.0266 99.0734L31.424 109.676C31.0133 110.088 30.472 110.293 29.932 110.293Z" fill="#FF7F27"/>
<path d="M29.932 152.725C28.7693 152.725 27.824 151.779 27.824 150.616V108.185C27.824 107.023 28.7693 106.076 29.932 106.076C31.096 106.076 32.0413 107.023 32.0413 108.185V150.616C32.0413 151.779 31.096 152.725 29.932 152.725Z" fill="#FF7F27"/>
<path d="M93.5786 131.509C92.416 131.509 91.4706 130.564 91.4706 129.401V55.1467C91.4706 53.9841 92.416 53.0387 93.5786 53.0387C94.7413 53.0387 95.6867 53.9841 95.6867 55.1467V129.401C95.6867 130.564 94.7413 131.509 93.5786 131.509Z" fill="#FF7F27"/>
<path d="M104.187 66.98H104.2H104.187ZM104.187 67.8627H82.9707C81.808 67.8627 80.8627 66.9174 80.8627 65.7547C80.8627 64.5921 81.808 63.6467 82.9707 63.6467H104.187C105.349 63.6467 106.295 64.5921 106.295 65.7547C106.295 66.9174 105.349 67.8627 104.187 67.8627Z" fill="#FF7F27"/>
<path d="M104.187 77.5867H104.2H104.187ZM104.187 78.4708H82.9707C81.808 78.4708 80.8627 77.5254 80.8627 76.3628C80.8627 75.2001 81.808 74.2534 82.9707 74.2534H104.187C105.349 74.2534 106.295 75.2001 106.295 76.3628C106.295 77.5254 105.349 78.4708 104.187 78.4708Z" fill="#FF7F27"/>
<path d="M104.187 88.1948H104.2H104.187ZM104.187 89.0787H82.9707C81.808 89.0787 80.8627 88.1321 80.8627 86.9694C80.8627 85.8068 81.808 84.8614 82.9707 84.8614H104.187C105.349 84.8614 106.295 85.8068 106.295 86.9694C106.295 88.1321 105.349 89.0787 104.187 89.0787Z" fill="#FF7F27"/>
<path d="M104.187 98.8027H104.2H104.187ZM104.187 99.6867H82.9707C81.808 99.6867 80.8627 98.7414 80.8627 97.5774C80.8627 96.4147 81.808 95.4694 82.9707 95.4694H104.187C105.349 95.4694 106.295 96.4147 106.295 97.5774C106.295 98.7414 105.349 99.6867 104.187 99.6867Z" fill="#FF7F27"/>
<path d="M104.187 109.409H104.2H104.187ZM104.187 110.295H82.9707C81.808 110.295 80.8627 109.348 80.8627 108.185C80.8627 107.023 81.808 106.076 82.9707 106.076H104.187C105.349 106.076 106.295 107.023 106.295 108.185C106.295 109.348 105.349 110.295 104.187 110.295Z" fill="#FF7F27"/>
<path d="M21.4333 159.116H38.432V152.725H21.4333V159.116ZM40.54 163.332H19.324C18.1613 163.332 17.216 162.387 17.216 161.224V150.616C17.216 149.453 18.1613 148.508 19.324 148.508H40.54C41.7027 148.508 42.6493 149.453 42.6493 150.616V161.224C42.6493 162.387 41.7027 163.332 40.54 163.332Z" fill="#FF7F27"/>
<path d="M41.0906 45.6334L41.088 45.6348C41.088 45.6348 41.0893 45.6348 41.0906 45.6334ZM19.8733 56.2414C19.8747 56.2414 19.876 56.2415 19.8773 56.2401L19.8733 56.2414ZM19.3266 57.2574C19.1026 57.2574 18.8773 57.2201 18.6586 57.1481C18.1253 56.9694 17.692 56.5947 17.44 56.0921C17.1867 55.5854 17.1466 55.0134 17.3253 54.4774C17.504 53.9441 17.88 53.5108 18.3853 53.2601L39.5973 42.6534C40.0986 42.4014 40.672 42.3601 41.2066 42.5388C41.7413 42.7174 42.176 43.0935 42.4266 43.5988C42.9466 44.6348 42.524 45.9028 41.4853 46.4241L20.2693 57.0321C19.972 57.1815 19.6506 57.2574 19.3266 57.2574Z" fill="#FF7F27"/>
<path d="M93.58 47.9294C93.544 47.9294 93.508 47.9294 93.472 47.9268C93.3973 47.9241 93.192 47.9081 93.1187 47.8947L92.8027 47.8348C92.7 47.8161 92.5987 47.7867 92.5 47.7481L92.1867 47.6254C92.0853 47.5854 91.988 47.5361 91.896 47.4774L91.616 47.2988C91.528 47.2414 91.4453 47.1761 91.3693 47.1054L91.1293 46.8774C91.0507 46.8028 90.98 46.7201 90.916 46.6321L90.7253 46.3614C90.6627 46.2734 90.6107 46.1814 90.5667 46.0841L90.428 45.7787C90.3827 45.6787 90.348 45.5747 90.3227 45.4667L90.2453 45.1334C90.2267 45.0521 90.2147 44.9681 90.208 44.8854L90.1933 44.6881C90.1867 44.5974 90.1867 44.4628 90.1947 44.3721C90.1987 44.2974 90.2093 44.1534 90.224 44.0801L90.2827 43.7628C90.3013 43.6601 90.3307 43.5588 90.3693 43.4601L90.492 43.1468C90.532 43.0454 90.5813 42.9481 90.6413 42.8561L90.82 42.5774C90.876 42.4894 90.9413 42.4054 91.0133 42.3294L91.24 42.0894C91.316 42.0107 91.3987 41.9401 91.4867 41.8774L91.7573 41.6854C91.844 41.6241 91.936 41.5708 92.0347 41.5268L92.34 41.3894C92.44 41.3441 92.544 41.3081 92.652 41.2828L92.9853 41.2054C93.0667 41.1868 93.1493 41.1748 93.2333 41.1681L93.4307 41.1534C93.52 41.1454 93.6547 41.1467 93.7453 41.1561C93.8213 41.1587 93.9653 41.1694 94.0387 41.1841L94.3546 41.2441C94.4586 41.2628 94.56 41.2908 94.6573 41.3294L94.9707 41.4534C95.072 41.4921 95.1693 41.5414 95.2627 41.6014L95.5413 41.7801C95.6293 41.8374 95.712 41.9028 95.7893 41.9735L96.028 42.2014C96.1067 42.2761 96.1787 42.3588 96.2413 42.4468L96.432 42.7174C96.4947 42.8041 96.5467 42.8974 96.592 42.9947L96.7293 43.3001C96.7747 43.4001 96.8107 43.5041 96.8347 43.6121L96.912 43.9454C96.9307 44.0267 96.9427 44.1108 96.9493 44.1934L96.964 44.3908C96.9693 44.4574 96.9707 44.5681 96.968 44.6348C96.964 44.7094 96.948 44.9254 96.9333 44.9988L96.8747 45.3161C96.856 45.4188 96.8266 45.5201 96.788 45.6174L96.6653 45.9321C96.6253 46.0334 96.576 46.1294 96.516 46.2227L96.3373 46.5014C96.2813 46.5894 96.216 46.6734 96.144 46.7494L95.9173 46.9894C95.8427 47.0681 95.76 47.1388 95.6707 47.2014L95.4013 47.3934C95.3133 47.4548 95.2213 47.5081 95.124 47.5521L94.8187 47.6894C94.7173 47.7361 94.6133 47.7708 94.5053 47.7961L94.172 47.8721C94.0907 47.8908 94.008 47.9028 93.924 47.9108L93.7747 47.9214C93.7107 47.9268 93.6453 47.9294 93.58 47.9294Z" fill="#FF7F27"/>
</svg>
