<svg width="101" height="150" viewBox="0 0 101 150" fill="none" xmlns="http://www.w3.org/2000/svg">
<path d="M4.20133 20.828H96.1427V14.6146H4.20133V20.828ZM98.244 25.0293H2.10133C0.942668 25.0293 0 24.0866 0 22.9293V12.5133C0 11.3559 0.942668 10.4133 2.10133 10.4133H98.244C99.4013 10.4133 100.344 11.3559 100.344 12.5133V22.9293C100.344 24.0866 99.4013 25.0293 98.244 25.0293Z" fill="#44347D"/>
<path d="M4.20133 62.4853H96.1427V56.272H4.20133V62.4853ZM98.244 66.6853H2.10133C0.942668 66.6853 0 65.7426 0 64.5853V54.1707C0 53.0133 0.942668 52.0707 2.10133 52.0707H98.244C99.4013 52.0707 100.344 53.0133 100.344 54.1707V64.5853C100.344 65.7426 99.4013 66.6853 98.244 66.6853Z" fill="#44347D"/>
<path d="M4.20133 104.141H96.1427V97.928H4.20133V104.141ZM98.244 108.343H2.10133C0.942668 108.343 0 107.4 0 106.241V95.828C0 94.6706 0.942668 93.728 2.10133 93.728H98.244C99.4013 93.728 100.344 94.6706 100.344 95.828V106.241C100.344 107.4 99.4013 108.343 98.244 108.343Z" fill="#44347D"/>
<path d="M4.20133 145.797H96.1427V139.585H4.20133V145.797ZM98.244 150H2.10133C0.942668 150 0 149.057 0 147.9V137.484C0 136.327 0.942668 135.384 2.10133 135.384H98.244C99.4013 135.384 100.344 136.327 100.344 137.484V147.9C100.344 149.057 99.4013 150 98.244 150Z" fill="#44347D"/>
<path d="M21.0307 10.4133H27.244V4.20131H21.0307V10.4133ZM29.344 14.6146H18.9293C17.772 14.6146 16.8293 13.672 16.8293 12.5133V2.09998C16.8293 0.94131 17.772 -2.3543e-05 18.9293 -2.3543e-05H29.344C30.5027 -2.3543e-05 31.444 0.94131 31.444 2.09998V12.5133C31.444 13.672 30.5027 14.6146 29.344 14.6146Z" fill="#44347D"/>
<path d="M8.51604 56.272C7.35737 56.272 6.4147 55.3293 6.4147 54.1706V22.9293C6.4147 21.7706 7.35737 20.828 8.51604 20.828C9.67337 20.828 10.616 21.7706 10.616 22.9293V54.1706C10.616 55.3293 9.67337 56.272 8.51604 56.272Z" fill="#44347D"/>
<path d="M8.51604 97.928C7.35737 97.928 6.4147 96.9853 6.4147 95.828V64.5853C6.4147 63.4266 7.35737 62.4853 8.51604 62.4853C9.67337 62.4853 10.616 63.4266 10.616 64.5853V95.828C10.616 96.9853 9.67337 97.928 8.51604 97.928Z" fill="#44347D"/>
<path d="M8.51604 139.585C7.35737 139.585 6.4147 138.643 6.4147 137.484V106.241C6.4147 105.084 7.35737 104.141 8.51604 104.141C9.67337 104.141 10.616 105.084 10.616 106.241V137.484C10.616 138.643 9.67337 139.585 8.51604 139.585Z" fill="#44347D"/>
<path d="M91.8293 139.585C90.6707 139.585 89.728 138.643 89.728 137.484V106.241C89.728 105.084 90.6707 104.141 91.8293 104.141C92.988 104.141 93.9293 105.084 93.9293 106.241V137.484C93.9293 138.643 92.988 139.585 91.8293 139.585Z" fill="#44347D"/>
<path d="M91.8293 97.928C90.6707 97.928 89.728 96.9853 89.728 95.828V64.5853C89.728 63.4266 90.6707 62.4853 91.8293 62.4853C92.988 62.4853 93.9293 63.4266 93.9293 64.5853V95.828C93.9293 96.9853 92.988 97.928 91.8293 97.928Z" fill="#44347D"/>
<path d="M91.8293 56.272C90.6707 56.272 89.728 55.3293 89.728 54.1706V22.9293C89.728 21.7706 90.6707 20.828 91.8293 20.828C92.988 20.828 93.9293 21.7706 93.9293 22.9293V54.1706C93.9293 55.3293 92.988 56.272 91.8293 56.272Z" fill="#44347D"/>
</svg>
