<svg width="58" height="56" viewBox="0 0 58 56" fill="none" xmlns="http://www.w3.org/2000/svg">
<path d="M57.4838 0H3.8147e-06V55.9332H57.4838V0Z" fill="#2A2C2F"/>
<path fill-rule="evenodd" clip-rule="evenodd" d="M29.5051 47C23.191 40.7043 12.4518 31.7674 13.0218 22.046C13.9544 14.1426 20.9785 8 29.5051 8C38.0317 8 45.0558 14.1426 45.9884 22.046C46.3815 32.6607 36.679 40.0055 29.5051 47Z" fill="white"/>
<path d="M36 24C36 27.3137 33.3137 30 30 30C26.6863 30 24 27.3137 24 24C24 20.6863 26.6863 18 30 18C33.3137 18 36 20.6863 36 24Z" fill="#2A2C2F"/>
</svg>
