<svg width="58" height="56" viewBox="0 0 58 56" fill="none" xmlns="http://www.w3.org/2000/svg">
<path d="M57.4838 0H3.8147e-06V55.9332H57.4838V0Z" fill="#2A2C2F"/>
<path fill-rule="evenodd" clip-rule="evenodd" d="M44.1581 15.2731C45.2869 15.2731 46.2894 15.7855 46.9201 16.5781L28.6011 31.1267L10.4454 16.8423C11.0524 15.9012 12.1473 15.2731 13.3971 15.2731H44.1581ZM9.94083 39.4918V19.4239L22.9681 29.6734L9.96768 39.9017C9.94996 39.7674 9.94083 39.6306 9.94083 39.4918ZM11.1322 41.964C11.7388 42.4627 12.5307 42.7646 13.3971 42.7646H44.1581C44.9027 42.7646 45.5924 42.5416 46.1566 42.1623L32.3136 31.1684L29.8243 33.1454C29.1202 33.7046 28.0946 33.7068 27.3879 33.1507L24.861 31.1627L11.1322 41.964ZM34.1961 29.6734L47.5199 40.2549C47.5817 40.0101 47.6144 39.7545 47.6144 39.4918V19.0168L34.1961 29.6734Z" fill="white"/>
</svg>
