<svg width="65" height="63" viewBox="0 0 65 63" fill="none" xmlns="http://www.w3.org/2000/svg">
<g filter="url(#filter0_d_101_7)">
<path d="M60.4561 0H4V54.9332H60.4561V0Z" fill="#2A2C2F"/>
<path d="M20.6356 22.515C23.7955 31.1353 27.0669 34.5748 35.3892 38.2382L31.7825 43.3035C22.2259 38.7282 17.466 31.0157 15.2242 24.997L20.6356 22.515Z" fill="white"/>
<path d="M23.2863 10.614C24.9761 10.6074 26.2608 12.0134 26.1456 13.6054C25.9644 16.1108 26.1574 17.9184 26.677 20.159C26.9624 21.3898 26.3167 22.6398 25.2905 23.4449C23.9074 24.5301 22.8507 25.9129 22.0109 27.1032C20.8468 28.7531 16.841 28.6346 15.9551 26.8372C14.1344 23.1433 12.9005 16.3379 15.5592 11.7401C15.9769 11.0179 16.8177 10.6393 17.689 10.6358L23.2863 10.614Z" fill="white"/>
<path d="M48.9359 37.9488C49.1461 36.3654 47.8226 34.9917 46.1352 34.9083C43.4798 34.7769 41.6029 34.3786 39.3102 33.622C38.0507 33.2063 36.6591 33.6614 35.6893 34.5267C34.3822 35.6929 32.8016 36.5173 31.4494 37.1616C29.5751 38.0545 29.2179 41.8245 31.0008 42.8712C34.6647 45.0224 41.67 46.9976 46.8229 45.0579C47.6323 44.7532 48.1314 44.0104 48.2398 43.1939L48.9359 37.9488Z" fill="white"/>
</g>
<defs>
<filter id="filter0_d_101_7" x="0" y="0" width="64.4561" height="62.9332" filterUnits="userSpaceOnUse" color-interpolation-filters="sRGB">
<feFlood flood-opacity="0" result="BackgroundImageFix"/>
<feColorMatrix in="SourceAlpha" type="matrix" values="0 0 0 0 0 0 0 0 0 0 0 0 0 0 0 0 0 0 127 0" result="hardAlpha"/>
<feOffset dy="4"/>
<feGaussianBlur stdDeviation="2"/>
<feComposite in2="hardAlpha" operator="out"/>
<feColorMatrix type="matrix" values="0 0 0 0 0 0 0 0 0 0 0 0 0 0 0 0 0 0 0.25 0"/>
<feBlend mode="normal" in2="BackgroundImageFix" result="effect1_dropShadow_101_7"/>
<feBlend mode="normal" in="SourceGraphic" in2="effect1_dropShadow_101_7" result="shape"/>
</filter>
</defs>
</svg>
